# https://github.com/mikedh/trimesh
v -0.10250000 -0.01000000 -0.01850000
v -0.10250000 -0.01000000 0.01850000
v -0.10250000 -0.00850000 -0.02000000
v -0.10250000 -0.00850000 0.02000000
v -0.10250000 0.00850000 -0.02000000
v -0.10250000 0.00850000 0.02000000
v -0.10250000 0.01000000 -0.01850000
v -0.10250000 0.01000000 0.01850000
v -0.04000000 -0.04500000 -0.00600000
v -0.04000000 -0.04500000 0.00600000
v -0.04000000 0.04500000 -0.00600000
v -0.04000000 0.04500000 0.00600000
v -0.02000000 -0.03250000 0.17000000
v -0.02000000 0.03250000 0.17000000
v -0.01185000 0.00000000 -0.03540000
v -0.00835000 0.00000000 -0.03540000
v -0.00092377 0.01031393 -0.02999515
v -0.00017378 0.01031393 -0.02999950
v 0.00000000 -0.03250000 0.17000000
v 0.00057620 0.01031393 -0.03000384
v 0.00380533 -0.02992884 0.17000000
v 0.03039786 -0.01196091 0.17000000
v 0.03699270 -0.00000000 0.17000000
v 0.03700000 0.03250000 0.17000000
v 0.04000000 0.04500000 -0.00600000
v 0.04000000 0.04500000 0.00600000
v 0.08640318 -0.06988942 -0.04680000
v 0.12840318 -0.06988942 -0.04680000
v 0.12840318 -0.02238942 -0.03880000
v 0.37190318 -0.00638942 -0.00000000
v 0.40690318 -0.04438942 -0.02300000
v 0.40690318 -0.04438942 0.02300000
f 31 25 30
f 11 5 7
f 29 25 31
f 11 25 20
f 20 29 16
f 25 29 20
f 13 4 2
f 2 10 13
f 1 3 27
f 27 9 1
f 27 10 9
f 13 10 27
f 14 12 8
f 30 24 32
f 31 30 32
f 32 24 23
f 32 23 22
f 22 21 32
f 32 21 19
f 26 30 25
f 26 24 30
f 28 29 31
f 31 32 28
f 16 29 28
f 28 32 19
f 15 27 3
f 15 3 5
f 15 5 11
f 11 17 15
f 15 20 16
f 14 8 6
f 20 15 18
f 18 15 17
f 11 20 18
f 18 17 11
f 9 10 2
f 1 9 2
f 8 12 11
f 11 7 8
f 23 24 21
f 21 14 13
f 13 19 21
f 21 24 14
f 22 23 21
f 11 12 26
f 26 25 11
f 14 24 26
f 26 12 14
f 28 19 13
f 13 27 28
f 15 28 27
f 16 28 15
f 13 14 6
f 6 4 13
f 6 7 5
f 6 3 1
f 5 3 6
f 1 2 6
f 6 2 4
f 6 8 7

